<svg width="150" height="28" viewBox="0 0 150 28" fill="none" xmlns="http://www.w3.org/2000/svg">
<g clip-path="url(#clip0_733_124460)">
<path d="M56.9333 4.86621L50.8418 23.1349H54.7377L56.0244 18.9109H61.3631L62.6484 23.1349H66.5457L60.4582 4.86621H56.9333ZM57.0668 15.4892L58.6991 10.0442L60.3327 15.4905L57.0668 15.4892Z" fill="#20053D"/>
<path d="M89.0989 4.86499H85.4766V23.1337H89.0989V4.86499Z" fill="#20053D"/>
<path d="M75.8961 16.1031C79.2222 15.9269 81.1308 13.882 81.1308 10.4941C81.1308 6.97075 78.9953 4.86621 75.437 4.86621H68.6074V23.1349H72.2298V17.4257L77.1895 23.1349H81.8609L75.7 16.1139L75.8961 16.1031ZM72.2311 12.6989V8.28795H75.3116C76.7156 8.28795 77.4577 9.0509 77.4577 10.4941C77.4577 11.9374 76.7156 12.6989 75.3116 12.6989H72.2311Z" fill="#20053D"/>
<path d="M41.9441 23.1349H45.5651V8.28795H51.6459V4.86621H35.8633V8.28795H41.9441V23.1349Z" fill="#20053D"/>
<path d="M0.333984 7.46289V15.259L11.572 27.9974L27.5122 15.3038V7.45476L11.6294 0.00146484L0.333984 7.46289ZM10.2227 22.3261L3.05674 14.1952V9.77748L10.2227 11.6489V22.3261ZM12.9508 23.3913V12.3658L23.3706 15.0842L12.9508 23.3913ZM24.7921 9.22322V12.603L5.26297 7.50354L11.8483 3.15895L24.7921 9.22322Z" fill="#20053D"/>
<path d="M97.4531 11.5568H98.7564V16.2359H101.171V17.4306H97.4531V11.5568Z" fill="#20053D"/>
<path d="M103.837 11.5568H104.914L107.488 17.4306H106.017L105.508 16.1861H103.21L102.717 17.4306H101.28L103.837 11.5568ZM104.338 13.2658L103.62 15.091H105.065L104.338 13.2658Z" fill="#20053D"/>
<path d="M113.07 15.1657C113.07 15.5141 113.017 15.8349 112.911 16.1281C112.805 16.4212 112.647 16.6756 112.435 16.8913C112.229 17.107 111.97 17.2757 111.658 17.3974C111.346 17.5191 110.987 17.5799 110.58 17.5799C110.168 17.5799 109.806 17.5191 109.494 17.3974C109.182 17.2757 108.921 17.107 108.709 16.8913C108.503 16.6756 108.347 16.4212 108.241 16.1281C108.135 15.8349 108.082 15.5141 108.082 15.1657V11.5568H109.386V15.1159C109.386 15.2984 109.414 15.4671 109.469 15.622C109.531 15.7769 109.614 15.9124 109.72 16.0285C109.826 16.1391 109.951 16.2276 110.096 16.294C110.246 16.3548 110.408 16.3852 110.58 16.3852C110.753 16.3852 110.912 16.3548 111.057 16.294C111.201 16.2276 111.327 16.1391 111.433 16.0285C111.538 15.9124 111.619 15.7769 111.675 15.622C111.736 15.4671 111.767 15.2984 111.767 15.1159V11.5568H113.07V15.1657Z" fill="#20053D"/>
<path d="M114.275 11.5568H116.046L118.561 15.6386H118.577V11.5568H119.881V17.4306H118.176L115.595 13.2492H115.578V17.4306H114.275V11.5568Z" fill="#20053D"/>
<path d="M124.955 13.0833C124.827 12.9285 124.668 12.8095 124.479 12.7266C124.295 12.6436 124.081 12.6021 123.836 12.6021C123.591 12.6021 123.362 12.6491 123.151 12.7432C122.945 12.8372 122.764 12.9699 122.608 13.1414C122.457 13.3073 122.338 13.5064 122.248 13.7387C122.165 13.971 122.123 14.2227 122.123 14.4937C122.123 14.7702 122.165 15.0247 122.248 15.257C122.338 15.4837 122.457 15.6828 122.608 15.8543C122.758 16.0202 122.933 16.1502 123.134 16.2442C123.34 16.3382 123.56 16.3852 123.794 16.3852C124.061 16.3852 124.298 16.3299 124.504 16.2193C124.71 16.1087 124.88 15.9538 125.014 15.7547L126.1 16.5595C125.849 16.9079 125.532 17.1651 125.147 17.331C124.763 17.497 124.368 17.5799 123.961 17.5799C123.499 17.5799 123.073 17.508 122.683 17.3642C122.293 17.2204 121.956 17.0158 121.672 16.7503C121.388 16.4793 121.165 16.153 121.004 15.7713C120.848 15.3897 120.77 14.9638 120.77 14.4937C120.77 14.0236 120.848 13.5977 121.004 13.2161C121.165 12.8344 121.388 12.5109 121.672 12.2454C121.956 11.9744 122.293 11.767 122.683 11.6232C123.073 11.4794 123.499 11.4075 123.961 11.4075C124.128 11.4075 124.301 11.4241 124.479 11.4572C124.663 11.4849 124.841 11.5319 125.014 11.5983C125.192 11.6647 125.362 11.7531 125.523 11.8638C125.685 11.9744 125.83 12.1099 125.958 12.2703L124.955 13.0833Z" fill="#20053D"/>
<path d="M126.806 11.5568H128.11V13.747H130.641V11.5568H131.944V17.4306H130.641V14.8919H128.11V17.4306H126.806V11.5568Z" fill="#20053D"/>
<path d="M133.145 11.5568H135.343C135.649 11.5568 135.939 11.5845 136.211 11.6398C136.484 11.6951 136.721 11.7919 136.922 11.9301C137.128 12.0629 137.289 12.2454 137.406 12.4777C137.529 12.7045 137.59 12.9921 137.59 13.3405C137.59 13.6834 137.534 13.971 137.423 14.2033C137.311 14.4356 137.158 14.6209 136.963 14.7592C136.768 14.8974 136.537 14.997 136.27 15.0578C136.003 15.1131 135.713 15.1408 135.401 15.1408H134.449V17.4306H133.145V11.5568ZM134.449 14.0457H135.318C135.435 14.0457 135.546 14.0346 135.652 14.0125C135.763 13.9904 135.861 13.9544 135.944 13.9047C136.033 13.8493 136.103 13.7774 136.153 13.689C136.209 13.5949 136.237 13.4788 136.237 13.3405C136.237 13.1912 136.2 13.0723 136.128 12.9838C136.061 12.8897 135.972 12.8178 135.861 12.7681C135.755 12.7183 135.635 12.6879 135.501 12.6768C135.368 12.6602 135.24 12.6519 135.117 12.6519H134.449V14.0457Z" fill="#20053D"/>
<path d="M139.734 11.5568H140.812L143.385 17.4306H141.915L141.405 16.1861H139.108L138.615 17.4306H137.178L139.734 11.5568ZM140.235 13.2658L139.517 15.091H140.962L140.235 13.2658Z" fill="#20053D"/>
<path d="M143.98 11.5568H145.935C146.408 11.5568 146.857 11.6093 147.28 11.7144C147.709 11.8195 148.082 11.991 148.399 12.2288C148.717 12.4611 148.967 12.7653 149.151 13.1414C149.341 13.5175 149.435 13.9738 149.435 14.5103C149.435 14.9859 149.343 15.4063 149.16 15.7713C148.981 16.1308 148.739 16.435 148.433 16.6839C148.126 16.9273 147.773 17.1126 147.372 17.2398C146.971 17.367 146.55 17.4306 146.11 17.4306H143.98V11.5568ZM145.283 16.2359H145.96C146.261 16.2359 146.539 16.2055 146.795 16.1447C147.057 16.0838 147.283 15.9843 147.472 15.846C147.661 15.7022 147.809 15.5169 147.915 15.2901C148.026 15.0578 148.082 14.7758 148.082 14.4439C148.082 14.1563 148.026 13.9074 147.915 13.6972C147.809 13.4815 147.664 13.3046 147.48 13.1663C147.297 13.028 147.079 12.9257 146.829 12.8593C146.584 12.7874 146.325 12.7515 146.052 12.7515H145.283V16.2359Z" fill="#20053D"/>
</g>
<defs>
<clipPath id="clip0_733_124460">
<rect width="149.333" height="28" fill="white" transform="translate(0.333984)"/>
</clipPath>
</defs>
</svg>
