<svg width="17" height="16" viewBox="0 0 17 16" fill="none" xmlns="http://www.w3.org/2000/svg">
<path d="M8.00009 10.5001C7.93429 10.5005 7.86906 10.4879 7.80814 10.463C7.74722 10.4381 7.69181 10.4014 7.64509 10.3551L5.64509 8.35509C5.55094 8.26094 5.49805 8.13324 5.49805 8.00009C5.49805 7.86694 5.55094 7.73924 5.64509 7.64509C5.73924 7.55094 5.86694 7.49805 6.00009 7.49805C6.13324 7.49805 6.26094 7.55094 6.35509 7.64509L8.00009 9.29509L11.1451 6.14509C11.2392 6.05094 11.3669 5.99805 11.5001 5.99805C11.6332 5.99805 11.7609 6.05094 11.8551 6.14509C11.9492 6.23924 12.0021 6.36694 12.0021 6.50009C12.0021 6.63324 11.9492 6.76094 11.8551 6.85509L8.35509 10.3551C8.30837 10.4014 8.25296 10.4381 8.19205 10.463C8.13113 10.4879 8.0659 10.5005 8.00009 10.5001Z" fill="#5F9C91"/>
<path d="M8.5 14.5C7.21442 14.5 5.95772 14.1188 4.8888 13.4046C3.81988 12.6903 2.98676 11.6752 2.49479 10.4874C2.00282 9.29972 1.87409 7.99279 2.1249 6.73192C2.3757 5.47104 2.99477 4.31285 3.90381 3.40381C4.81285 2.49477 5.97104 1.8757 7.23192 1.6249C8.49279 1.37409 9.79972 1.50282 10.9874 1.99479C12.1752 2.48676 13.1903 3.31988 13.9046 4.3888C14.6188 5.45772 15 6.71442 15 8C15 9.72391 14.3152 11.3772 13.0962 12.5962C11.8772 13.8152 10.2239 14.5 8.5 14.5ZM8.5 2.5C7.4122 2.5 6.34884 2.82257 5.44437 3.42692C4.5399 4.03127 3.83495 4.89025 3.41867 5.89524C3.00238 6.90024 2.89346 8.0061 3.10568 9.073C3.3179 10.1399 3.84173 11.1199 4.61092 11.8891C5.3801 12.6583 6.36011 13.1821 7.42701 13.3943C8.4939 13.6065 9.59977 13.4976 10.6048 13.0813C11.6098 12.6651 12.4687 11.9601 13.0731 11.0556C13.6774 10.1512 14 9.0878 14 8C14 6.54131 13.4205 5.14237 12.3891 4.11092C11.3576 3.07947 9.95869 2.5 8.5 2.5Z" fill="#5F9C91"/>
</svg>
