<svg width="24" height="24" viewBox="0 0 24 24" fill="none" xmlns="http://www.w3.org/2000/svg">
<path d="M6.75 19.875C7.51526 20.4077 8.38543 20.802 9.32533 21.0224C11.3311 21.4929 13.4186 21.4929 15.4245 21.0224C18.2019 20.3709 20.3705 18.2023 21.022 15.4249C21.4925 13.419 21.4925 11.3316 21.022 9.32573C20.8134 8.43648 20.4493 7.60963 19.9595 6.875" stroke="#363853" stroke-width="1.5" stroke-linecap="round"/>
<path d="M16.375 15.375C15.5766 16.5706 14.0842 17.375 12.375 17.375C11.4141 17.375 10.5218 17.1208 9.78281 16.6858" stroke="#363853" stroke-width="1.5" stroke-linecap="round" stroke-linejoin="round"/>
<path d="M15.375 11.375C15.6744 10.7772 16.234 10.375 16.875 10.375C17.516 10.375 18.0756 10.7772 18.375 11.375" stroke="#363853" stroke-width="1.5" stroke-linecap="round" stroke-linejoin="round"/>
<path d="M6.375 11.375C6.67441 10.7772 7.23404 10.375 7.875 10.375C8.51596 10.375 9.07559 10.7772 9.375 11.375" stroke="#363853" stroke-width="1.5" stroke-linecap="round" stroke-linejoin="round"/>
<path fill-rule="evenodd" clip-rule="evenodd" d="M3.86744 17.8077C3.47806 17.1263 3.18242 16.3833 2.9977 15.5959C2.50077 13.4774 2.50077 11.2726 2.9977 9.15415C3.71424 6.09941 6.09941 3.71424 9.15416 2.9977C11.2726 2.50077 13.4774 2.50077 15.5958 2.9977C16.3896 3.18389 17.1382 3.48275 17.824 3.87675L16.7148 4.9839C16.2554 4.75592 15.7658 4.57829 15.2533 4.45806C13.3601 4.01398 11.3899 4.01398 9.49671 4.45806C6.99661 5.0445 5.0445 6.9966 4.45806 9.49671C4.01398 11.3899 4.01398 13.3601 4.45806 15.2533C4.57703 15.7605 4.7522 16.2452 4.97676 16.7004L3.86744 17.8077Z" fill="#363853"/>
<path d="M19.375 3.375L3.375 19.375" stroke="#363853" stroke-width="1.5" stroke-linecap="round"/>
</svg>
