<?xml version="1.0" encoding="UTF-8"?>
<svg width="161px" height="51px" viewBox="0 0 161 51" version="1.1" xmlns="http://www.w3.org/2000/svg" xmlns:xlink="http://www.w3.org/1999/xlink">
    <!-- Generator: Sketch 64 (93537) - https://sketch.com -->
    <title>Tari Logo</title>
    <desc>Created with Sketch.</desc>
    <defs>
        <polygon id="path-1" points="0.393621297 0.862457335 29.0083004 0.862457335 29.0083004 33.4853883 0.393621297 33.4853883"></polygon>
    </defs>
    <g id="Final-Designs" stroke="none" stroke-width="1" fill="none" fill-rule="evenodd">
        <g id="Tari-Home---Large-Display" transform="translate(-50.000000, -112.000000)">
            <g id="Group">
                <g id="Tari-Logo" transform="translate(50.000000, 112.000000)">
                    <path d="M102.594401,9.47880149 L91.5497291,42.1014905 L98.6148729,42.1014905 L100.946448,34.5589002 L110.633313,34.5589002 L112.964645,42.1014905 L120.029547,42.1014905 L108.985118,9.47880149 L102.594401,9.47880149 Z M105.78988,18.7257282 L108.750629,28.4486495 L102.828647,28.4486495 L105.78988,18.7257282 Z" id="Fill-1" fill="#000000"></path>
                    <polygon id="Fill-2" fill="#000000" points="154.348369 42.1015147 160.914771 42.1015147 160.914771 9.47882569 154.348369 9.47882569"></polygon>
                    <g id="Group-10" transform="translate(0.000000, 0.176120)">
                        <path d="M130.331357,23.2899286 L130.331357,15.412908 L135.915763,15.412908 C138.462951,15.412908 139.808901,16.7748284 139.808901,19.3517813 C139.808901,21.9282501 138.462951,23.2899286 135.915763,23.2899286 L130.331357,23.2899286 Z M136.976648,29.3699305 C143.007768,29.0536494 146.467259,25.4022604 146.467259,19.3517813 C146.467259,13.059312 142.607758,9.30265727 136.144202,9.30265727 L123.764471,9.30265727 L123.764471,41.9253463 L130.331357,41.9253463 L130.331357,31.7305442 L139.324678,41.9253463 L147.781991,41.9253463 L136.621165,29.3885638 L136.976648,29.3699305 Z" id="Fill-3" fill="#000000"></path>
                        <g id="Group-7" transform="translate(64.000000, 8.440006)">
                            <mask id="mask-2" fill="white">
                                <use xlink:href="#path-1"></use>
                            </mask>
                            <g id="Clip-6"></g>
                            <polygon id="Fill-5" fill="#000000" mask="url(#mask-2)" points="11.4177961 33.4853883 17.9844402 33.4853883 17.9844402 6.97295003 29.0083004 6.97295003 29.0083004 0.862457335 0.393451904 0.862457335 0.393451904 6.97295003 11.4177961 6.97295003"></polygon>
                        </g>
                        <path d="M44.338157,17.1463649 L44.338157,23.1828086 L8.93838931,14.0762361 L20.8764882,6.30520718 L44.338157,17.1463649 Z M22.868551,42.4464326 L22.868551,22.7585999 L41.7674959,27.6201815 L22.868551,42.4464326 Z M17.9307424,40.5439062 L4.93805053,26.0356302 L4.93805053,18.1460261 L17.9307424,21.4883937 L17.9307424,40.5439062 Z M0,14.0024291 L0,27.9236371 L20.3772626,50.6774848 L49.2762075,28.0056718 L49.2762075,13.9883937 L20.4697028,0.677484788 L0,14.0024291 Z" id="Fill-8" fill="#000000"></path>
                    </g>
                </g>
            </g>
        </g>
    </g>
</svg>